<?xml version="1.0" encoding="utf-8"?>
<!-- Generator: Adobe Illustrator 19.0.0, SVG Export Plug-In . SVG Version: 6.00 Build 0)  -->
<svg version="1.1" id="Layer_1" xmlns="http://www.w3.org/2000/svg" xmlns:xlink="http://www.w3.org/1999/xlink" x="0px" y="0px"
	 viewBox="-161 232.9 176.7 37.2" style="enable-background:new -161 232.9 176.7 37.2;" xml:space="preserve">
<style type="text/css">
	.st0{fill:#00AEEF;}
	.st1{fill:#5E5E5E;}
</style>
<title>wa_logo_2_beta</title>
<path class="st0" d="M-126.3,241.2c-5,0-9,4-9,9s4,9,9,9s9-4,9-9S-121.3,241.2-126.3,241.2C-126.3,241.2-126.3,241.2-126.3,241.2z
	 M-126.3,254.9c-2.6,0-4.7-2.1-4.7-4.7c0-2.6,2.1-4.7,4.7-4.7c2.6,0,4.7,2.1,4.7,4.7C-121.6,252.8-123.7,254.9-126.3,254.9
	L-126.3,254.9z"/>
<circle class="st0" cx="-65.2" cy="257" r="2.1"/>
<circle class="st0" cx="-65.2" cy="243.5" r="2.1"/>
<rect x="-67.2" y="243.5" class="st0" width="4.2" height="13.5"/>
<path class="st0" d="M-71.9,241.4c-4.9,0-8.9,4-8.9,8.9c0,4.9,4,8.9,8.9,8.9s8.9-4,8.9-8.9c0,0,0,0,0,0
	C-63.1,245.4-67,241.4-71.9,241.4z M-71.9,254.9c-2.6,0-4.6-2.1-4.6-4.6c0-2.6,2.1-4.6,4.6-4.6s4.6,2.1,4.6,4.6l0,0
	C-67.3,252.8-69.4,254.9-71.9,254.9L-71.9,254.9z"/>
<circle class="st0" cx="-59.1" cy="243.5" r="2.1"/>
<circle class="st0" cx="-59.1" cy="263.3" r="2.1"/>
<rect x="-61.2" y="243.5" class="st0" width="4.2" height="19.8"/>
<path class="st0" d="M-52.3,259.3c4.9,0,8.9-4,8.9-8.9s-4-8.9-8.9-8.9s-8.9,4-8.9,8.9C-61.2,255.3-57.2,259.3-52.3,259.3
	L-52.3,259.3z M-52.3,245.7c2.6,0,4.7,2.1,4.7,4.7c0,2.6-2.1,4.7-4.7,4.7c-2.6,0-4.7-2.1-4.7-4.7C-57,247.8-54.9,245.7-52.3,245.7
	C-52.3,245.7-52.3,245.7-52.3,245.7z"/>
<circle class="st0" cx="-39.3" cy="243.5" r="2.1"/>
<circle class="st0" cx="-39.3" cy="263.3" r="2.1"/>
<rect x="-41.4" y="243.5" class="st0" width="4.2" height="19.8"/>
<path class="st0" d="M-32.5,259.3c4.9,0,8.9-4,9-8.9c0-4.9-4-8.9-8.9-9c-4.9,0-8.9,4-9,8.9c0,0,0,0,0,0
	C-41.4,255.3-37.4,259.3-32.5,259.3z M-32.5,245.7c2.6,0,4.7,2.1,4.7,4.7c0,2.6-2.1,4.7-4.7,4.7c-2.6,0-4.7-2.1-4.7-4.7
	C-37.2,247.8-35.1,245.7-32.5,245.7C-32.5,245.7-32.5,245.7-32.5,245.7z"/>
<circle class="st0" cx="-95.9" cy="257" r="2.2"/>
<circle class="st0" cx="-95.9" cy="243.6" r="2.2"/>
<rect x="-98.1" y="243.5" class="st0" width="4.3" height="13.4"/>
<circle class="st0" cx="-91.8" cy="243.5" r="2.2"/>
<circle class="st0" cx="-95.9" cy="243.6" r="2.2"/>
<rect x="-96" y="241.4" class="st0" width="4.2" height="4.3"/>
<circle class="st0" cx="-91.8" cy="257" r="2.2"/>
<circle class="st0" cx="-95.9" cy="257" r="2.2"/>
<rect x="-96" y="254.8" class="st0" width="4.2" height="4.3"/>
<path class="st0" d="M-82.6,250.3c-0.1-5-4.2-8.9-9.1-8.9c0,0,0,0,0,0v4.3c2.6-0.1,4.7,1.9,4.8,4.5c0,0,0,0,0,0.1
	c0,2.6-2.2,4.6-4.7,4.6c0,0,0,0-0.1,0v4.3C-86.8,259.2-82.7,255.3-82.6,250.3C-82.6,250.3-82.6,250.3-82.6,250.3z"/>
<circle class="st0" cx="-113.3" cy="257" r="2.2"/>
<circle class="st0" cx="-113.3" cy="243.5" r="2.2"/>
<rect x="-115.4" y="243.5" class="st0" width="4.3" height="13.4"/>
<path class="st0" d="M-100.1,256.3c-0.1-0.3-0.3-0.6-0.5-0.8l0,0l-3.6-3.6c-1.6,0.6-3.4,1-5.2,1l5.7,5.7l0,0
	c0.8,0.9,2.2,0.9,3.1,0.1C-100,258-99.8,257.1-100.1,256.3z"/>
<path class="st0" d="M-106.8,241.4c-0.3,0-0.7,0-1,0h-3c-0.3,0-0.7,0.1-1,0.2c-0.4,0.2-0.7,0.5-0.9,0.9c-0.5,1-0.1,2.2,0.9,2.7
	c0.1,0.1,0.2,0.1,0.3,0.1v0.1h4.1c1.5-0.1,2.9,1,3,2.5s-1,2.9-2.5,3c-0.2,0-0.3,0-0.5,0h-4.1v0.1c-1.1,0.3-1.7,1.4-1.3,2.5
	c0.2,0.5,0.5,0.9,1,1.2c0.1,0.1,0.2,0.1,0.3,0.1v0.1h4.1c3.8,0.1,6.9-3,6.9-6.7C-100.5,244.6-103.3,241.7-106.8,241.4z"/>
<circle class="st0" cx="-151.1" cy="256.9" r="2.2"/>
<circle class="st0" cx="-154.8" cy="243.6" r="2.2"/>
<rect x="-155.2" y="243.3" transform="matrix(-0.965 0.2624 -0.2624 -0.965 -234.9072 531.8164)" class="st0" width="4.4" height="13.8"/>
<circle class="st0" cx="-141.6" cy="256.9" r="2.2"/>
<circle class="st0" cx="-138" cy="243.6" r="2.2"/>
<rect x="-146.7" y="248.1" transform="matrix(-0.2624 0.965 -0.965 -0.2624 65.0413 450.7889)" class="st0" width="13.8" height="4.4"/>
<path class="st0" d="M-144.2,246.7c0-1.2-1-2.2-2.2-2.2c-0.8,0-1.6,0.5-2,1.3l0,0l-4.8,10.2l0,0c-0.5,1.1,0,2.4,1.1,2.9
	c1.1,0.5,2.4,0,2.9-1.1l0,0l0,0l4.3-9.3l0.4-0.9C-144.3,247.4-144.2,247-144.2,246.7z"/>
<path class="st0" d="M-139.6,256l-4,1.9c0.5,1.1,1.8,1.6,2.9,1.1S-139.1,257.1-139.6,256L-139.6,256z"/>
<path class="st0" d="M-141.5,254.7c0.8,0,1.6,0.5,1.9,1.3l0,0l-4.8-10.2l-3.1,3.7l3.9,8.3l0,0c-0.5-1.1-0.1-2.4,1-2.9
	C-142.2,254.8-141.9,254.7-141.5,254.7z"/>
<path class="st1" d="M-20,241.6c0,0,0-0.1,0-0.1c0,0,0.1,0,0.1,0h2.4c0.2,0,0.3,0,0.5,0.1c0.1,0,0.3,0.1,0.4,0.2
	c0.1,0.1,0.2,0.2,0.3,0.3c0.1,0.1,0.2,0.2,0.3,0.4c0.1,0.1,0.1,0.3,0.2,0.4c0,0.1,0.1,0.3,0.1,0.4c0,0.2,0,0.4-0.1,0.7
	c-0.1,0.2-0.2,0.4-0.4,0.6c-0.2,0.2-0.3,0.3-0.5,0.4c-0.2,0.1-0.5,0.2-0.7,0.2h-1.1v1.8c0,0.1-0.1,0.2-0.1,0.2c0,0,0,0,0,0h-1.1
	c0,0-0.1,0-0.1,0c0,0,0-0.1,0-0.1L-20,241.6L-20,241.6z M-17.2,243.3c0-0.1,0-0.1,0-0.2c0-0.1-0.1-0.1-0.1-0.2
	c-0.1-0.1-0.1-0.1-0.2-0.1c-0.1,0-0.2-0.1-0.2-0.1h-0.8v1.2h0.8c0.1,0,0.2,0,0.2-0.1c0.1,0,0.1-0.1,0.2-0.1c0-0.1,0.1-0.1,0.1-0.2
	C-17.2,243.4-17.2,243.3-17.2,243.3L-17.2,243.3z"/>
<path class="st1" d="M-14.9,241.6c0,0,0-0.1,0-0.1c0,0,0.1,0,0.1,0h2.4c0.2,0,0.5,0,0.7,0.1c0.2,0.1,0.4,0.2,0.6,0.4
	c0.2,0.2,0.3,0.4,0.4,0.6c0.1,0.2,0.1,0.5,0.1,0.7c0,0.2,0,0.3-0.1,0.5c0,0.2-0.1,0.3-0.2,0.4c-0.1,0.1-0.2,0.3-0.3,0.4
	c-0.1,0.1-0.2,0.2-0.4,0.3l1,1.8l0.1,0.1c0,0,0,0.1,0,0.1c0,0,0,0.1,0,0.1c0,0-0.1,0-0.1,0h-1.3c0,0-0.1,0-0.1,0
	c0,0-0.1-0.1-0.1-0.1l-0.9-1.7h-0.6v1.7c0,0.1-0.1,0.2-0.1,0.2c0,0,0,0,0,0h-1.1c0,0-0.1,0-0.1,0c0,0,0-0.1,0-0.1L-14.9,241.6
	L-14.9,241.6z M-11.9,243.3c0-0.1,0-0.1,0-0.2c0-0.1-0.1-0.1-0.1-0.2c0-0.1-0.1-0.1-0.2-0.2c-0.1-0.1-0.2-0.1-0.3-0.1h-0.9v1.4h0.9
	c0.1,0,0.2,0,0.2-0.1c0.1,0,0.1-0.1,0.2-0.2c0-0.1,0.1-0.1,0.1-0.2C-11.9,243.4-11.9,243.4-11.9,243.3L-11.9,243.3z"/>
<path class="st1" d="M-9.6,241.6c0,0,0-0.1,0-0.1c0,0,0.1,0,0.1,0h1.1c0,0,0.1,0,0.1,0c0,0,0.1,0.1,0.1,0.1v5.2
	c0,0.1-0.1,0.2-0.2,0.2c0,0,0,0,0,0h-1c-0.1,0-0.2,0-0.2-0.1c0,0,0,0,0,0L-9.6,241.6L-9.6,241.6z"/>
<path class="st1" d="M-5.6,246.9l-0.1-0.1l-0.1-0.1l-1.9-5l0,0v-0.1c0-0.1,0-0.1,0.1-0.1h1.2c0.1,0,0.2,0.1,0.2,0.1l1.1,3.4
	c0.1-0.3,0.2-0.6,0.3-0.8l0.3-0.9l0.3-0.9c0.1-0.3,0.2-0.6,0.3-0.8c0-0.1,0.1-0.1,0.2-0.1h1.2c0,0,0.1,0,0.1,0c0,0,0,0.1,0,0.1l0,0
	l0,0l-1.9,5v0.1l-0.1,0.1c0,0,0,0.1-0.1,0.1c0,0-0.1,0-0.1,0h-0.9C-5.5,246.9-5.5,246.9-5.6,246.9z"/>
<path class="st1" d="M-0.8,241.6L-0.8,241.6L-0.8,241.6h0.1h1c0,0,0.1,0,0.1,0h0.1l0.1,0.2l2,5.1c0,0,0,0.1,0,0.1c0,0-0.1,0-0.1,0
	H1.4c0,0-0.1,0-0.1,0c0,0-0.1-0.1-0.1-0.1L1,246.5l-0.1-0.4h-2l-0.1,0.4l-0.1,0.4c0,0.1-0.1,0.1-0.2,0.1h-1.1c0,0-0.1,0-0.1,0
	c0,0,0-0.1,0-0.1L-0.8,241.6z M-0.2,243.2l-0.1,0.4l-0.1,0.4l-0.1,0.4l-0.1,0.4h1.1L-0.2,243.2z"/>
<path class="st1" d="M2.1,241.6c0,0,0-0.1,0.1-0.1c0,0,0.1,0,0.1,0h4c0,0,0.1,0,0.1,0c0,0,0.1,0.1,0.1,0.1v1c0,0,0,0.1,0,0.1
	c0,0-0.1,0.1-0.1,0.1H5v4.1c0,0,0,0.1,0,0.1c0,0-0.1,0.1-0.1,0.1H3.8c-0.1,0-0.1,0-0.2-0.1c0,0-0.1-0.1-0.1-0.1v-4.1H2.2
	c0,0-0.1,0-0.1,0c0,0-0.1-0.1-0.1-0.1L2.1,241.6L2.1,241.6z"/>
<path class="st1" d="M7.4,241.6c0,0,0-0.1,0-0.1c0,0,0.1,0,0.1,0h3.7c0,0,0.1,0,0.1,0c0,0,0,0.1,0,0.1v0.9c0,0,0,0.1,0,0.1
	c0,0-0.1,0.1-0.1,0.1H8.8v0.9h1.9c0,0,0.1,0,0.1,0c0,0,0,0.1,0,0.1v0.8c0,0,0,0.1,0,0.1c0,0-0.1,0-0.1,0H8.8v1h2.5
	c0.1,0,0.2,0,0.2,0.1c0,0,0,0,0,0v0.9c0,0,0,0,0,0.1c0,0.1-0.1,0.1-0.2,0.1c0,0,0,0,0,0H7.5c0,0-0.1,0-0.1,0c0,0,0-0.1,0-0.1
	L7.4,241.6L7.4,241.6z"/>
<path class="st1" d="M6.3,253.8l-0.2,0.6L5.9,255c-0.1,0.2-0.1,0.4-0.2,0.5h1.4l-0.7-2.1C6.4,253.5,6.3,253.7,6.3,253.8z"/>
<path class="st1" d="M-14.4,255.4c-0.1-0.1-0.1-0.1-0.2-0.2c-0.1,0-0.2-0.1-0.3-0.1h-1.2v1.6h1.2c0.1,0,0.2,0,0.3-0.1
	c0.1,0,0.2-0.1,0.2-0.2c0.1-0.1,0.1-0.2,0.1-0.2c0-0.1,0.1-0.2,0.1-0.3c0-0.1,0-0.2-0.1-0.3C-14.3,255.6-14.4,255.5-14.4,255.4z"/>
<path class="st1" d="M-20.4,251.2v7c0,1.1,0.9,2,2,2h28c1.1,0,2-0.9,2-2v-7c0-1.1-0.9-2-2-2h-28C-19.5,249.2-20.4,250.1-20.4,251.2z
	 M-12.5,256.8c-0.1,0.2-0.3,0.5-0.4,0.7c-0.2,0.2-0.4,0.3-0.6,0.5c-0.2,0.1-0.5,0.2-0.8,0.2h-3.4c0,0-0.1,0-0.1,0
	c0,0-0.1-0.1-0.1-0.1v-6.6c0-0.1,0-0.1,0.1-0.2c0,0,0.1-0.1,0.1-0.1h3.1c0.3,0,0.5,0.1,0.8,0.2c0.2,0.1,0.5,0.2,0.6,0.4
	c0.2,0.2,0.3,0.4,0.4,0.6c0.1,0.2,0.2,0.5,0.2,0.8c0,0.2,0,0.4-0.1,0.7c-0.1,0.2-0.2,0.4-0.3,0.5c0.2,0.2,0.4,0.5,0.5,0.7
	c0.1,0.3,0.2,0.6,0.2,0.9C-12.3,256.3-12.4,256.6-12.5,256.8z M-5,257.9C-5,257.9-5,257.9-5,257.9c0,0.2-0.1,0.2-0.2,0.2
	c0,0,0,0,0,0H-10c0,0-0.1,0-0.1,0c0,0-0.1-0.1-0.1-0.2v-6.6c0-0.1,0-0.1,0.1-0.2c0,0,0.1-0.1,0.1-0.1h4.7c0.1,0,0.1,0,0.2,0.1
	c0,0,0.1,0.1,0.1,0.2v1.2c0,0.1,0,0.1-0.1,0.1c0,0-0.1,0.1-0.2,0.1h-3v1.2H-6c0,0,0.1,0,0.1,0c0,0,0.1,0.1,0.1,0.1v1
	c0,0,0,0.1-0.1,0.1c0,0-0.1,0.1-0.1,0.1h-2.4v1.2h3.2c0.1,0,0.2,0.1,0.2,0.2c0,0,0,0,0,0.1L-5,257.9L-5,257.9z M2.4,252.5
	c0,0.1,0,0.1-0.1,0.2c0,0.1-0.1,0.1-0.2,0.1H0.5v5.1c0,0.1,0,0.1-0.1,0.1c0,0-0.1,0.1-0.2,0.1h-1.4c-0.1,0-0.1,0-0.1-0.1
	c0,0-0.1-0.1-0.1-0.2v-5.1h-1.6c-0.1,0-0.1,0-0.2-0.1c0,0-0.1-0.1-0.1-0.2v-1.2c0-0.1,0-0.1,0.1-0.2c0,0,0.1-0.1,0.2-0.1h5.1
	c0.1,0,0.1,0,0.1,0.1c0,0,0.1,0.1,0.1,0.1L2.4,252.5L2.4,252.5z M9.8,258c0,0-0.1,0.1-0.2,0.1H8.3c-0.1,0-0.1,0-0.2,0
	c0,0-0.1-0.1-0.1-0.1l-0.2-0.5L7.7,257H5.2L5,257.5L4.8,258c0,0.1-0.1,0.2-0.2,0.2H3.2c0,0-0.1,0-0.1,0c0,0,0-0.1,0-0.1l2.5-6.7
	c0,0,0,0,0-0.1l0.1-0.1h0.1h0.1H7c0,0,0.1,0,0.1,0l0.1,0.1l0.1,0.3l2.5,6.4C9.9,258,9.8,258,9.8,258L9.8,258z"/>
<path class="st1" d="M-14.9,253.8c0.1,0,0.2-0.1,0.2-0.1c0.1-0.1,0.1-0.1,0.1-0.2c0.1-0.2,0.1-0.4,0-0.5c0-0.1-0.1-0.2-0.1-0.2
	c-0.1-0.1-0.1-0.1-0.2-0.1c-0.1,0-0.2-0.1-0.3-0.1h-1v1.4h1C-15.1,253.9-15,253.9-14.9,253.8z"/>
</svg>
