<?xml version="1.0" encoding="utf-8"?>
<!-- Generator: Adobe Illustrator 19.0.0, SVG Export Plug-In . SVG Version: 6.00 Build 0)  -->
<svg version="1.1" id="Layer_1" xmlns="http://www.w3.org/2000/svg" xmlns:xlink="http://www.w3.org/1999/xlink" x="0px" y="0px"
	 viewBox="-161 232.8 176.7 37.2" style="enable-background:new -161 232.8 176.7 37.2;" xml:space="preserve">
<title>wa_logo_2_beta</title>
<path d="M-126.2,240.8c-5,0-9,4-9,9s4,9,9,9s9-4,9-9S-121.2,240.8-126.2,240.8L-126.2,240.8z M-126.2,254.5c-2.6,0-4.7-2.1-4.7-4.7
	c0-2.6,2.1-4.7,4.7-4.7c2.6,0,4.7,2.1,4.7,4.7C-121.5,252.4-123.6,254.5-126.2,254.5L-126.2,254.5z"/>
<circle cx="-65.1" cy="256.6" r="2.1"/>
<circle cx="-65.1" cy="243.1" r="2.1"/>
<rect x="-67.1" y="243.1" width="4.2" height="13.5"/>
<path d="M-71.8,241c-4.9,0-8.9,4-8.9,8.9s4,8.9,8.9,8.9s8.9-4,8.9-8.9l0,0C-63,245-66.9,241-71.8,241z M-71.8,254.5
	c-2.6,0-4.6-2.1-4.6-4.6c0-2.6,2.1-4.6,4.6-4.6s4.6,2.1,4.6,4.6l0,0C-67.2,252.4-69.3,254.5-71.8,254.5L-71.8,254.5z"/>
<circle cx="-59" cy="243.1" r="2.1"/>
<circle cx="-59" cy="262.9" r="2.1"/>
<rect x="-61.1" y="243.1" width="4.2" height="19.8"/>
<path d="M-52.2,258.9c4.9,0,8.9-4,8.9-8.9s-4-8.9-8.9-8.9s-8.9,4-8.9,8.9C-61.1,254.9-57.1,258.9-52.2,258.9L-52.2,258.9z
	 M-52.2,245.3c2.6,0,4.7,2.1,4.7,4.7c0,2.6-2.1,4.7-4.7,4.7c-2.6,0-4.7-2.1-4.7-4.7S-54.8,245.3-52.2,245.3L-52.2,245.3z"/>
<circle cx="-39.2" cy="243.1" r="2.1"/>
<circle cx="-39.2" cy="262.9" r="2.1"/>
<rect x="-41.3" y="243.1" width="4.2" height="19.8"/>
<path d="M-32.4,258.9c4.9,0,8.9-4,9-8.9c0-4.9-4-8.9-8.9-9c-4.9,0-8.9,4-9,8.9l0,0C-41.3,254.9-37.3,258.9-32.4,258.9z M-32.4,245.3
	c2.6,0,4.7,2.1,4.7,4.7c0,2.6-2.1,4.7-4.7,4.7s-4.7-2.1-4.7-4.7S-35,245.3-32.4,245.3L-32.4,245.3z"/>
<circle cx="-95.8" cy="256.6" r="2.2"/>
<circle cx="-95.8" cy="243.2" r="2.2"/>
<rect x="-98" y="243.1" width="4.3" height="13.4"/>
<circle cx="-91.8" cy="243.1" r="2.2"/>
<circle cx="-95.8" cy="243.2" r="2.2"/>
<rect x="-95.9" y="241" width="4.2" height="4.3"/>
<circle cx="-91.8" cy="256.6" r="2.2"/>
<circle cx="-95.8" cy="256.6" r="2.2"/>
<rect x="-95.9" y="254.4" width="4.2" height="4.3"/>
<path d="M-82.5,249.9c-0.1-5-4.2-8.9-9.1-8.9l0,0v4.3c2.6-0.1,4.7,1.9,4.8,4.5c0,0,0,0,0,0.1c0,2.6-2.2,4.6-4.7,4.6c0,0,0,0-0.1,0
	v4.3C-86.8,258.8-82.6,254.9-82.5,249.9L-82.5,249.9z"/>
<circle cx="-113.2" cy="256.6" r="2.2"/>
<circle cx="-113.2" cy="243.1" r="2.2"/>
<rect x="-115.3" y="243.1" width="4.3" height="13.4"/>
<path d="M-100,255.9c-0.1-0.3-0.3-0.6-0.5-0.8l0,0l-3.6-3.6c-1.6,0.6-3.4,1-5.2,1l5.7,5.7l0,0c0.8,0.9,2.2,0.9,3.1,0.1
	C-99.9,257.6-99.8,256.7-100,255.9z"/>
<path d="M-106.8,241c-0.3,0-0.7,0-1,0h-3c-0.3,0-0.7,0.1-1,0.2c-0.4,0.2-0.7,0.5-0.9,0.9c-0.5,1-0.1,2.2,0.9,2.7
	c0.1,0.1,0.2,0.1,0.3,0.1v0.1h4.1c1.5-0.1,2.9,1,3,2.5s-1,2.9-2.5,3c-0.2,0-0.3,0-0.5,0h-4.1v0.1c-1.1,0.3-1.7,1.4-1.3,2.5
	c0.2,0.5,0.5,0.9,1,1.2c0.1,0.1,0.2,0.1,0.3,0.1v0.1h4.1c3.8,0.1,6.9-3,6.9-6.7C-100.4,244.2-103.2,241.3-106.8,241z"/>
<circle cx="-151.1" cy="256.5" r="2.2"/>
<circle cx="-154.8" cy="243.2" r="2.2"/>
<rect x="-155.1" y="242.9" transform="matrix(0.965 -0.2624 0.2624 0.965 -70.9079 -31.3567)" width="4.4" height="13.8"/>
<circle cx="-141.6" cy="256.5" r="2.2"/>
<circle cx="-137.9" cy="243.2" r="2.2"/>
<rect x="-146.7" y="247.6" transform="matrix(0.2624 -0.965 0.965 0.2624 -344.1425 49.3898)" width="13.8" height="4.4"/>
<path d="M-144.1,246.3c0-1.2-1-2.2-2.2-2.2c-0.8,0-1.6,0.5-2,1.3l0,0l-4.8,10.2l0,0c-0.5,1.1,0,2.4,1.1,2.9s2.4,0,2.9-1.1l0,0l0,0
	l4.3-9.3l0.4-0.9C-144.2,247-144.1,246.6-144.1,246.3z"/>
<path d="M-139.6,255.6l-4,1.9c0.5,1.1,1.8,1.6,2.9,1.1S-139.1,256.7-139.6,255.6L-139.6,255.6z"/>
<path d="M-141.4,254.3c0.8,0,1.6,0.5,1.9,1.3l0,0l-4.8-10.2l-3.1,3.7l3.9,8.3l0,0c-0.5-1.1-0.1-2.4,1-2.9
	C-142.1,254.4-141.8,254.3-141.4,254.3z"/>
<path d="M-19.9,241.2v-0.1h0.1h2.4c0.2,0,0.3,0,0.5,0.1c0.1,0,0.3,0.1,0.4,0.2c0.1,0.1,0.2,0.2,0.3,0.3c0.1,0.1,0.2,0.2,0.3,0.4
	c0.1,0.1,0.1,0.3,0.2,0.4c0,0.1,0.1,0.3,0.1,0.4c0,0.2,0,0.4-0.1,0.7c-0.1,0.2-0.2,0.4-0.4,0.6c-0.2,0.2-0.3,0.3-0.5,0.4
	c-0.2,0.1-0.5,0.2-0.7,0.2h-1.1v1.8c0,0.1-0.1,0.2-0.1,0.2l0,0h-1.1h-0.1v-0.1L-19.9,241.2L-19.9,241.2z M-17.1,242.9
	c0-0.1,0-0.1,0-0.2c0-0.1-0.1-0.1-0.1-0.2c-0.1-0.1-0.1-0.1-0.2-0.1s-0.2-0.1-0.2-0.1h-0.8v1.2h0.8c0.1,0,0.2,0,0.2-0.1
	c0.1,0,0.1-0.1,0.2-0.1c0-0.1,0.1-0.1,0.1-0.2S-17.1,242.9-17.1,242.9L-17.1,242.9z"/>
<path d="M-14.8,241.2v-0.1h0.1h2.4c0.2,0,0.5,0,0.7,0.1s0.4,0.2,0.6,0.4c0.2,0.2,0.3,0.4,0.4,0.6c0.1,0.2,0.1,0.5,0.1,0.7
	s0,0.3-0.1,0.5c0,0.2-0.1,0.3-0.2,0.4c-0.1,0.1-0.2,0.3-0.3,0.4c-0.1,0.1-0.2,0.2-0.4,0.3l1,1.8l0.1,0.1v0.1v0.1h-0.1h-1.3h-0.1
	l-0.1-0.1l-0.9-1.7h-0.6v1.7c0,0.1-0.1,0.2-0.1,0.2l0,0h-1.1h-0.1v-0.1L-14.8,241.2L-14.8,241.2z M-11.8,242.9c0-0.1,0-0.1,0-0.2
	c0-0.1-0.1-0.1-0.1-0.2c0-0.1-0.1-0.1-0.2-0.2c-0.1-0.1-0.2-0.1-0.3-0.1h-0.9v1.4h0.9c0.1,0,0.2,0,0.2-0.1c0.1,0,0.1-0.1,0.2-0.2
	c0-0.1,0.1-0.1,0.1-0.2C-11.8,243-11.8,243-11.8,242.9L-11.8,242.9z"/>
<path d="M-9.5,241.2v-0.1h0.1h1.1h0.1l0.1,0.1v5.2c0,0.1-0.1,0.2-0.2,0.2l0,0h-1c-0.1,0-0.2,0-0.2-0.1l0,0L-9.5,241.2L-9.5,241.2z"
	/>
<path d="M-5.5,246.5l-0.1-0.1l-0.1-0.1l-1.9-5l0,0v-0.1c0-0.1,0-0.1,0.1-0.1h1.2c0.1,0,0.2,0.1,0.2,0.1l1.1,3.4
	c0.1-0.3,0.2-0.6,0.3-0.8l0.3-0.9l0.3-0.9c0.1-0.3,0.2-0.6,0.3-0.8c0-0.1,0.1-0.1,0.2-0.1h1.2h0.1v0.1l0,0l0,0l-1.9,5v0.1l-0.1,0.1
	c0,0,0,0.1-0.1,0.1h-0.1h-0.9C-5.4,246.5-5.4,246.5-5.5,246.5z"/>
<path d="M-0.7,241.2L-0.7,241.2L-0.7,241.2h0.1h1h0.1h0.1l0.1,0.2l2,5.1v0.1H2.6H1.5H1.4l-0.1-0.1l-0.2-0.4L1,245.7h-2l-0.1,0.4
	l-0.1,0.4c0,0.1-0.1,0.1-0.2,0.1h-1.1h-0.1v-0.1L-0.7,241.2z M-0.1,242.8l-0.1,0.4l-0.1,0.4l-0.1,0.4l-0.1,0.4h1.1L-0.1,242.8z"/>
<path d="M2.2,241.2c0,0,0-0.1,0.1-0.1h0.1h4h0.1l0.1,0.1v1v0.1l-0.1,0.1H5.1v4.1v0.1L5,246.7H3.9c-0.1,0-0.1,0-0.2-0.1l-0.1-0.1
	v-4.1H2.3H2.2l-0.1-0.1L2.2,241.2L2.2,241.2z"/>
<path d="M7.5,241.2v-0.1h0.1h3.7h0.1v0.1v0.9v0.1l-0.1,0.1H8.9v0.9h1.9h0.1v0.1v0.8v0.1h-0.1H8.9v1h2.5c0.1,0,0.2,0,0.2,0.1l0,0v0.9
	c0,0,0,0,0,0.1s-0.1,0.1-0.2,0.1l0,0H7.6H7.5v-0.1V241.2L7.5,241.2z"/>
<path d="M6.4,253.4L6.2,254L6,254.6c-0.1,0.2-0.1,0.4-0.2,0.5h1.4L6.5,253C6.5,253.1,6.4,253.3,6.4,253.4z"/>
<path d="M-14.3,255c-0.1-0.1-0.1-0.1-0.2-0.2c-0.1,0-0.2-0.1-0.3-0.1H-16v1.6h1.2c0.1,0,0.2,0,0.3-0.1c0.1,0,0.2-0.1,0.2-0.2
	c0.1-0.1,0.1-0.2,0.1-0.2c0-0.1,0.1-0.2,0.1-0.3s0-0.2-0.1-0.3C-14.2,255.2-14.3,255.1-14.3,255z"/>
<path d="M-20.3,250.8v7c0,1.1,0.9,2,2,2h28c1.1,0,2-0.9,2-2v-7c0-1.1-0.9-2-2-2h-28C-19.4,248.8-20.3,249.7-20.3,250.8z
	 M-12.4,256.4c-0.1,0.2-0.3,0.5-0.4,0.7c-0.2,0.2-0.4,0.3-0.6,0.5c-0.2,0.1-0.5,0.2-0.8,0.2h-3.4h-0.1l-0.1-0.1v-6.6
	c0-0.1,0-0.1,0.1-0.2l0.1-0.1h3.1c0.3,0,0.5,0.1,0.8,0.2c0.2,0.1,0.5,0.2,0.6,0.4c0.2,0.2,0.3,0.4,0.4,0.6c0.1,0.2,0.2,0.5,0.2,0.8
	c0,0.2,0,0.4-0.1,0.7c-0.1,0.2-0.2,0.4-0.3,0.5c0.2,0.2,0.4,0.5,0.5,0.7c0.1,0.3,0.2,0.6,0.2,0.9C-12.2,255.9-12.3,256.2-12.4,256.4
	z M-4.9,257.5L-4.9,257.5c0,0.2-0.1,0.2-0.2,0.2l0,0h-4.8H-10c0,0-0.1-0.1-0.1-0.2v-6.6c0-0.1,0-0.1,0.1-0.2l0.1-0.1h4.7
	c0.1,0,0.1,0,0.2,0.1c0,0,0.1,0.1,0.1,0.2v1.2c0,0.1,0,0.1-0.1,0.1c0,0-0.1,0.1-0.2,0.1h-3v1.2h2.3h0.1l0.1,0.1v1c0,0,0,0.1-0.1,0.1
	l-0.1,0.1h-2.4v1.2h3.2c0.1,0,0.2,0.1,0.2,0.2c0,0,0,0,0,0.1V257.5L-4.9,257.5z M2.5,252.1c0,0.1,0,0.1-0.1,0.2
	c0,0.1-0.1,0.1-0.2,0.1H0.6v5.1c0,0.1,0,0.1-0.1,0.1c0,0-0.1,0.1-0.2,0.1h-1.4c-0.1,0-0.1,0-0.1-0.1c0,0-0.1-0.1-0.1-0.2v-5.1h-1.6
	c-0.1,0-0.1,0-0.2-0.1c0,0-0.1-0.1-0.1-0.2v-1.2c0-0.1,0-0.1,0.1-0.2c0,0,0.1-0.1,0.2-0.1h5.1c0.1,0,0.1,0,0.1,0.1l0.1,0.1
	L2.5,252.1L2.5,252.1z M9.9,257.6c0,0-0.1,0.1-0.2,0.1H8.4c-0.1,0-0.1,0-0.2,0l-0.1-0.1l-0.2-0.5l-0.1-0.5H5.3l-0.2,0.5l-0.2,0.5
	c0,0.1-0.1,0.2-0.2,0.2H3.3H3.2v-0.1l2.5-6.7c0,0,0,0,0-0.1l0.1-0.1h0.1H6h1.1h0.1l0.1,0.1l0.1,0.3L9.9,257.6
	C10,257.6,9.9,257.6,9.9,257.6L9.9,257.6z"/>
<path d="M-14.8,253.4c0.1,0,0.2-0.1,0.2-0.1c0.1-0.1,0.1-0.1,0.1-0.2c0.1-0.2,0.1-0.4,0-0.5c0-0.1-0.1-0.2-0.1-0.2
	c-0.1-0.1-0.1-0.1-0.2-0.1c-0.1,0-0.2-0.1-0.3-0.1h-1v1.4h1C-15,253.5-14.9,253.5-14.8,253.4z"/>
</svg>
